<?xml version="1.0" encoding="UTF-8"?>
<!DOCTYPE svg PUBLIC "-//W3C//DTD SVG 1.1//EN" "http://www.w3.org/Graphics/SVG/1.1/DTD/svg11.dtd">
<svg version="1.1" xmlns="http://www.w3.org/2000/svg" xmlns:xlink="http://www.w3.org/1999/xlink" x="0" y="0" width="768" height="300" viewBox="0, 0, 768, 300">
  <g id="Layer_1">
    <path d="M72.227,209.07 L3.416,31.799 L32.948,31.799 L86.563,169.437 L136.738,31.799 L163.546,31.799 L96.025,217.196 Q82.406,254.673 73.231,266.862 Q64.056,279.05 53.806,284.025 Q43.556,289 26.497,289 L6.427,289 L6.427,263.296 L21.479,263.296 Q32.518,263.296 40.832,259.897 Q49.147,256.497 54.666,249.035 Q60.185,241.573 69.504,216.201 z" fill="#B04239"/>
    <path d="M253.133,167.786 Q250.139,157.04 250.139,149.279 Q237.547,163.726 228.619,167.607 Q219.69,171.487 211.536,171.487 Q197.808,171.487 187.951,161.756 Q178.094,152.025 178.094,134.951 Q178.094,115.609 191.977,105.102 Q205.859,94.595 239.818,86.954 L250.139,84.685 L250.139,69.641 Q250.139,57.343 243.017,52.388 Q235.895,47.433 225.883,47.433 Q213.91,47.433 207.201,53.523 Q200.492,59.612 200.492,67.731 L200.492,69.641 L179.642,69.641 L179.642,67.85 Q179.642,59.015 186.093,49.583 Q192.544,40.15 203.227,35.374 Q213.91,30.599 226.606,30.599 Q239.198,30.599 249.52,35.136 Q259.842,39.673 264.59,47.374 Q269.338,55.075 269.338,76.328 L269.338,128.146 Q269.338,136.623 269.699,145.996 Q270.06,155.368 273.363,167.786 z M250.139,100.446 L244.359,102.117 Q215.149,110.356 206.995,117.758 Q198.84,125.161 198.84,135.429 Q198.84,140.682 201.266,145.22 Q203.692,149.757 208.44,152.264 Q213.188,154.771 217.832,154.771 Q225.883,154.771 233.676,149.339 Q241.469,143.906 245.804,134.832 Q250.139,125.758 250.139,113.699 z" fill="#B04239"/>
    <path d="M319.914,167.786 L286.988,34.419 L307.115,34.419 L327.449,117.4 L330.133,137.22 L332.3,137.22 L335.294,117.4 L355.834,34.419 L375.135,34.419 L398.05,117.161 L401.972,137.22 L404.036,137.22 L407.03,117.161 L427.363,34.419 L445.53,34.419 L412.603,167.786 L393.198,167.786 L369.458,80.626 L366.259,61.284 L364.607,61.284 L361.201,80.626 L339.422,167.786 z" fill="#B04239"/>
    <path d="M535.019,167.786 Q532.025,157.04 532.025,149.279 Q519.433,163.726 510.505,167.607 Q501.576,171.487 493.422,171.487 Q479.694,171.487 469.837,161.756 Q459.98,152.025 459.98,134.951 Q459.98,115.609 473.863,105.102 Q487.745,94.595 521.704,86.954 L532.025,84.685 L532.025,69.641 Q532.025,57.343 524.904,52.388 Q517.781,47.433 507.769,47.433 Q495.796,47.433 489.087,53.523 Q482.378,59.612 482.378,67.731 L482.378,69.641 L461.528,69.641 L461.528,67.85 Q461.528,59.015 467.979,49.583 Q474.43,40.15 485.113,35.374 Q495.796,30.599 508.492,30.599 Q521.084,30.599 531.406,35.136 Q541.728,39.673 546.476,47.374 Q551.224,55.075 551.224,76.328 L551.224,128.146 Q551.224,136.623 551.585,145.996 Q551.946,155.368 555.249,167.786 z M532.025,100.446 L526.245,102.117 Q497.035,110.356 488.881,117.758 Q480.727,125.161 480.727,135.429 Q480.727,140.682 483.152,145.22 Q485.578,149.757 490.326,152.264 Q495.074,154.771 499.719,154.771 Q507.769,154.771 515.562,149.339 Q523.355,143.906 527.69,134.832 Q532.025,125.758 532.025,113.699 z" fill="#B04239"/>
    <path d="M573.725,132.563 L592.924,132.563 L592.924,133.041 Q592.924,141.638 598.601,147.309 Q604.277,152.98 617.799,152.98 Q629.669,152.98 637.049,146.294 Q644.429,139.608 644.429,130.534 Q644.429,118.236 629.979,113.102 L620.173,109.639 L613.67,107.251 L600.355,102.475 Q577.544,92.804 577.544,70.358 Q577.544,54.597 588.588,42.658 Q599.633,30.718 621.411,30.718 Q642.881,30.718 651.964,40.926 Q661.047,51.135 661.047,63.552 L661.047,64.03 L641.745,64.03 L641.745,63.552 Q641.745,56.866 635.914,53.045 Q630.082,49.224 620.379,49.224 Q608.819,49.224 602.678,54.776 Q596.536,60.328 596.536,68.447 Q596.536,74.656 600.51,78.536 Q604.484,82.417 613.877,85.521 L623.166,88.506 L629.875,90.775 Q643.913,95.431 647.371,97.341 Q650.828,99.252 654.338,102.237 Q659.189,106.535 661.511,112.624 Q663.834,118.713 663.834,126.832 Q663.834,145.697 652.119,158.592 Q640.403,171.487 617.902,171.487 Q603.658,171.487 594.265,166.592 Q584.873,161.696 579.299,153.04 Q573.725,144.384 573.725,133.041 z" fill="#B04239"/>
    <path d="M759,148.921 L759,167.547 Q744.962,171.487 737.531,171.487 Q726.796,171.487 718.178,166.472 Q709.559,161.458 705.069,151.906 Q700.579,142.354 700.579,121.46 L700.579,52.926 L680.555,52.926 L680.555,34.419 L700.579,34.419 L700.579,2.898 L719.777,2.898 L719.777,34.419 L753.426,34.419 L753.426,52.926 L719.777,52.926 L719.777,115.132 Q719.777,132.802 722.151,139.668 Q724.525,146.533 729.635,149.757 Q734.744,152.98 741.866,152.98 Q747.543,152.98 759,148.921 z" fill="#B04239"/>
    <path d="M165.777,233.616 L159.231,233.616 L159.231,227.428 L165.777,227.428 z" fill="#2D384B"/>
    <path d="M181.175,233.616 L174.629,233.616 L174.629,227.428 L181.175,227.428 z" fill="#2D384B"/>
    <path d="M196.574,233.616 L190.028,233.616 L190.028,227.428 L196.574,227.428 z" fill="#2D384B"/>
    <path d="M209.691,233.616 L201.781,207.436 L206.616,207.436 L211.501,223.725 L212.146,227.616 L212.666,227.616 L213.386,223.725 L218.32,207.436 L222.957,207.436 L228.462,223.678 L229.404,227.616 L229.9,227.616 L230.619,223.678 L235.504,207.436 L239.868,207.436 L231.958,233.616 L227.296,233.616 L221.593,216.506 L220.824,212.709 L220.428,212.709 L219.609,216.506 L214.377,233.616 z" fill="#2D384B"/>
    <path d="M248.894,233.616 L244.282,233.616 L244.282,195.787 L248.894,195.787 L248.894,211.959 Q250.357,209.826 251.733,208.795 Q253.109,207.764 254.609,207.237 Q256.109,206.709 257.944,206.709 Q260.548,206.709 262.618,207.717 Q264.689,208.725 265.829,210.682 Q266.97,212.639 266.97,216.951 L266.97,233.616 L262.358,233.616 L262.358,218.826 Q262.358,215.311 261.862,213.846 Q261.366,212.381 259.978,211.549 Q258.589,210.717 256.804,210.717 Q254.77,210.717 252.935,211.842 Q251.1,212.967 249.997,214.983 Q248.894,216.998 248.894,220.748 z" fill="#2D384B"/>
    <path d="M292.014,226.889 L296.626,226.889 L296.626,227.123 Q296.626,228.858 295.163,230.662 Q293.7,232.467 291.295,233.405 Q288.89,234.342 285.765,234.342 Q279.442,234.342 276.008,230.475 Q272.574,226.608 272.574,220.701 Q272.574,214.655 276.207,210.682 Q279.839,206.709 285.567,206.709 Q288.716,206.709 291.27,207.998 Q293.824,209.287 295.312,212.018 Q296.8,214.748 296.8,219.623 L296.8,221.076 L277.136,221.076 Q277.136,225.272 279.529,227.991 Q281.922,230.709 286.162,230.709 Q289.212,230.709 290.613,229.596 Q292.014,228.483 292.014,227.123 z M277.434,217.795 L292.386,217.795 L292.386,217.28 Q292.386,215.451 291.456,213.729 Q290.526,212.006 288.89,211.174 Q287.253,210.342 285.071,210.342 Q282.492,210.342 280.31,212.299 Q278.128,214.256 277.434,217.795 z" fill="#2D384B"/>
    <path d="M307.76,233.616 L303.148,233.616 L303.148,207.436 L307.76,207.436 L307.76,212.053 Q308.9,210.061 310.252,208.959 Q311.603,207.858 313.128,207.283 Q314.653,206.709 316.24,206.709 Q317.678,206.709 318.72,207.108 L318.72,211.631 Q317.083,210.881 315.248,210.881 Q312.645,210.881 310.202,213.037 Q307.76,215.194 307.76,220.678 z" fill="#2D384B"/>
    <path d="M340.863,226.889 L345.475,226.889 L345.475,227.123 Q345.475,228.858 344.012,230.662 Q342.549,232.467 340.143,233.405 Q337.738,234.342 334.614,234.342 Q328.291,234.342 324.857,230.475 Q321.422,226.608 321.422,220.701 Q321.422,214.655 325.055,210.682 Q328.688,206.709 334.416,206.709 Q337.565,206.709 340.119,207.998 Q342.673,209.287 344.16,212.018 Q345.648,214.748 345.648,219.623 L345.648,221.076 L325.985,221.076 Q325.985,225.272 328.378,227.991 Q330.771,230.709 335.011,230.709 Q338.061,230.709 339.462,229.596 Q340.863,228.483 340.863,227.123 z M326.282,217.795 L341.234,217.795 L341.234,217.28 Q341.234,215.451 340.305,213.729 Q339.375,212.006 337.738,211.174 Q336.102,210.342 333.92,210.342 Q331.341,210.342 329.159,212.299 Q326.977,214.256 326.282,217.795 z" fill="#2D384B"/>
    <path d="M386.016,233.616 Q385.297,231.506 385.297,229.983 Q382.272,232.819 380.127,233.58 Q377.982,234.342 376.023,234.342 Q372.726,234.342 370.358,232.432 Q367.99,230.522 367.99,227.17 Q367.99,223.373 371.325,221.311 Q374.66,219.248 382.818,217.748 L385.297,217.303 L385.297,214.35 Q385.297,211.936 383.586,210.963 Q381.875,209.991 379.47,209.991 Q376.594,209.991 374.982,211.186 Q373.37,212.381 373.37,213.975 L373.37,214.35 L368.361,214.35 L368.361,213.998 Q368.361,212.264 369.911,210.412 Q371.461,208.561 374.027,207.623 Q376.594,206.686 379.644,206.686 Q382.669,206.686 385.148,207.576 Q387.628,208.467 388.769,209.979 Q389.909,211.491 389.909,215.662 L389.909,225.834 Q389.909,227.498 389.996,229.338 Q390.083,231.178 390.876,233.616 z M385.297,220.397 L383.909,220.725 Q376.891,222.342 374.932,223.795 Q372.974,225.248 372.974,227.264 Q372.974,228.295 373.556,229.186 Q374.139,230.076 375.28,230.569 Q376.42,231.061 377.536,231.061 Q379.47,231.061 381.342,229.994 Q383.214,228.928 384.256,227.147 Q385.297,225.366 385.297,222.998 z" fill="#2D384B"/>
    <path d="M418.202,243.787 L413.59,243.787 L413.59,207.436 L418.202,207.436 L418.202,211.983 Q419.64,209.662 420.942,208.701 Q422.243,207.741 423.88,207.225 Q425.517,206.709 427.252,206.709 Q430.426,206.709 433.055,208.338 Q435.683,209.967 437.134,213.201 Q438.584,216.436 438.584,220.467 Q438.584,226.444 435.547,230.393 Q432.509,234.342 427.029,234.342 Q425.269,234.342 423.694,233.862 Q422.12,233.381 420.904,232.432 Q419.689,231.483 418.202,229.045 z M418.202,220.537 Q418.202,224.991 420.235,227.85 Q422.268,230.709 425.963,230.709 Q429.335,230.709 431.567,228.178 Q433.798,225.647 433.798,220.608 Q433.798,214.725 431.443,212.44 Q429.087,210.155 426.062,210.155 Q423.88,210.155 421.983,211.408 Q420.086,212.662 419.144,215.135 Q418.202,217.608 418.202,220.537 z" fill="#2D384B"/>
    <path d="M462.636,226.889 L467.249,226.889 L467.249,227.123 Q467.249,228.858 465.786,230.662 Q464.323,232.467 461.917,233.405 Q459.512,234.342 456.388,234.342 Q450.065,234.342 446.63,230.475 Q443.196,226.608 443.196,220.701 Q443.196,214.655 446.829,210.682 Q450.461,206.709 456.189,206.709 Q459.339,206.709 461.893,207.998 Q464.447,209.287 465.934,212.018 Q467.422,214.748 467.422,219.623 L467.422,221.076 L447.759,221.076 Q447.759,225.272 450.152,227.991 Q452.544,230.709 456.785,230.709 Q459.834,230.709 461.235,229.596 Q462.636,228.483 462.636,227.123 z M448.056,217.795 L463.008,217.795 L463.008,217.28 Q463.008,215.451 462.078,213.729 Q461.149,212.006 459.512,211.174 Q457.876,210.342 455.693,210.342 Q453.115,210.342 450.933,212.299 Q448.751,214.256 448.056,217.795 z" fill="#2D384B"/>
    <path d="M478.382,233.616 L473.77,233.616 L473.77,207.436 L478.382,207.436 L478.382,211.959 Q479.845,209.826 481.221,208.795 Q482.597,207.764 484.098,207.237 Q485.598,206.709 487.433,206.709 Q490.036,206.709 492.107,207.717 Q494.177,208.725 495.318,210.682 Q496.458,212.639 496.458,216.951 L496.458,233.616 L491.846,233.616 L491.846,218.826 Q491.846,215.311 491.35,213.846 Q490.854,212.381 489.416,211.549 Q487.978,210.717 486.292,210.717 Q484.259,210.717 482.424,211.842 Q480.589,212.967 479.485,214.983 Q478.382,216.998 478.382,220.748 z" fill="#2D384B"/>
    <path d="M520.337,229.912 L520.337,233.569 Q516.965,234.342 515.179,234.342 Q512.601,234.342 510.53,233.358 Q508.46,232.373 507.381,230.498 Q506.302,228.623 506.302,224.522 L506.302,211.069 L501.492,211.069 L501.492,207.436 L506.302,207.436 L506.302,201.248 L510.915,201.248 L510.915,207.436 L518.998,207.436 L518.998,211.069 L510.915,211.069 L510.915,223.28 Q510.915,226.748 511.485,228.096 Q512.055,229.444 513.283,230.076 Q514.51,230.709 516.221,230.709 Q517.585,230.709 520.337,229.912 z" fill="#2D384B"/>
    <path d="M544.017,226.889 L548.63,226.889 L548.63,227.123 Q548.63,228.858 547.167,230.662 Q545.704,232.467 543.298,233.405 Q540.893,234.342 537.769,234.342 Q531.446,234.342 528.012,230.475 Q524.577,226.608 524.577,220.701 Q524.577,214.655 528.21,210.682 Q531.843,206.709 537.57,206.709 Q540.72,206.709 543.274,207.998 Q545.828,209.287 547.315,212.018 Q548.803,214.748 548.803,219.623 L548.803,221.076 L529.14,221.076 Q529.14,225.272 531.533,227.991 Q533.925,230.709 538.166,230.709 Q541.215,230.709 542.616,229.596 Q544.017,228.483 544.017,227.123 z M529.437,217.795 L544.389,217.795 L544.389,217.28 Q544.389,215.451 543.46,213.729 Q542.53,212.006 540.893,211.174 Q539.257,210.342 537.075,210.342 Q534.496,210.342 532.314,212.299 Q530.132,214.256 529.437,217.795 z" fill="#2D384B"/>
    <path d="M553.44,226.701 L558.052,226.701 L558.052,226.795 Q558.052,228.483 559.416,229.596 Q560.78,230.709 564.028,230.709 Q566.879,230.709 568.652,229.397 Q570.425,228.084 570.425,226.303 Q570.425,223.889 566.954,222.881 L564.598,222.201 L563.036,221.733 L559.837,220.795 Q554.357,218.897 554.357,214.491 Q554.357,211.397 557.011,209.053 Q559.664,206.709 564.896,206.709 Q570.053,206.709 572.235,208.713 Q574.417,210.717 574.417,213.155 L574.417,213.248 L569.781,213.248 L569.781,213.155 Q569.781,211.842 568.38,211.092 Q566.979,210.342 564.648,210.342 Q561.871,210.342 560.395,211.432 Q558.92,212.522 558.92,214.116 Q558.92,215.334 559.875,216.096 Q560.829,216.858 563.086,217.467 L565.317,218.053 L566.929,218.498 Q570.301,219.412 571.132,219.787 Q571.963,220.162 572.806,220.748 Q573.971,221.592 574.529,222.787 Q575.087,223.983 575.087,225.576 Q575.087,229.28 572.273,231.811 Q569.458,234.342 564.053,234.342 Q560.631,234.342 558.374,233.381 Q556.118,232.42 554.779,230.721 Q553.44,229.022 553.44,226.795 z" fill="#2D384B"/>
    <path d="M597.949,229.912 L597.949,233.569 Q594.577,234.342 592.791,234.342 Q590.213,234.342 588.142,233.358 Q586.072,232.373 584.993,230.498 Q583.914,228.623 583.914,224.522 L583.914,211.069 L579.104,211.069 L579.104,207.436 L583.914,207.436 L583.914,201.248 L588.526,201.248 L588.526,207.436 L596.61,207.436 L596.61,211.069 L588.526,211.069 L588.526,223.28 Q588.526,226.748 589.097,228.096 Q589.667,229.444 590.895,230.076 Q592.122,230.709 593.833,230.709 Q595.197,230.709 597.949,229.912 z" fill="#2D384B"/>
    <path d="M618.753,226.701 L623.365,226.701 L623.365,226.795 Q623.365,228.483 624.729,229.596 Q626.093,230.709 629.341,230.709 Q632.193,230.709 633.965,229.397 Q635.738,228.084 635.738,226.303 Q635.738,223.889 632.267,222.881 L629.911,222.201 L628.349,221.733 L625.15,220.795 Q619.67,218.897 619.67,214.491 Q619.67,211.397 622.324,209.053 Q624.977,206.709 630.209,206.709 Q635.366,206.709 637.549,208.713 Q639.731,210.717 639.731,213.155 L639.731,213.248 L635.094,213.248 L635.094,213.155 Q635.094,211.842 633.693,211.092 Q632.292,210.342 629.961,210.342 Q627.184,210.342 625.708,211.432 Q624.233,212.522 624.233,214.116 Q624.233,215.334 625.188,216.096 Q626.142,216.858 628.399,217.467 L630.63,218.053 L632.242,218.498 Q635.614,219.412 636.445,219.787 Q637.276,220.162 638.119,220.748 Q639.284,221.592 639.842,222.787 Q640.4,223.983 640.4,225.576 Q640.4,229.28 637.586,231.811 Q634.771,234.342 629.366,234.342 Q625.944,234.342 623.687,233.381 Q621.431,232.42 620.092,230.721 Q618.753,229.022 618.753,226.795 z" fill="#2D384B"/>
    <path d="M663.262,229.912 L663.262,233.569 Q659.89,234.342 658.104,234.342 Q655.526,234.342 653.455,233.358 Q651.385,232.373 650.306,230.498 Q649.227,228.623 649.227,224.522 L649.227,211.069 L644.417,211.069 L644.417,207.436 L649.227,207.436 L649.227,201.248 L653.84,201.248 L653.84,207.436 L661.923,207.436 L661.923,211.069 L653.84,211.069 L653.84,223.28 Q653.84,226.748 654.41,228.096 Q654.98,229.444 656.208,230.076 Q657.435,230.709 659.146,230.709 Q660.51,230.709 663.262,229.912 z" fill="#2D384B"/>
    <path d="M685.926,233.616 Q685.207,231.506 685.207,229.983 Q682.182,232.819 680.037,233.58 Q677.892,234.342 675.933,234.342 Q672.635,234.342 670.267,232.432 Q667.899,230.522 667.899,227.17 Q667.899,223.373 671.234,221.311 Q674.569,219.248 682.727,217.748 L685.207,217.303 L685.207,214.35 Q685.207,211.936 683.496,210.963 Q681.785,209.991 679.38,209.991 Q676.503,209.991 674.892,211.186 Q673.28,212.381 673.28,213.975 L673.28,214.35 L668.271,214.35 L668.271,213.998 Q668.271,212.264 669.821,210.412 Q671.37,208.561 673.937,207.623 Q676.503,206.686 679.553,206.686 Q682.578,206.686 685.058,207.576 Q687.538,208.467 688.678,209.979 Q689.819,211.491 689.819,215.662 L689.819,225.834 Q689.819,227.498 689.906,229.338 Q689.992,231.178 690.786,233.616 z M685.207,220.397 L683.818,220.725 Q676.801,222.342 674.842,223.795 Q672.883,225.248 672.883,227.264 Q672.883,228.295 673.466,229.186 Q674.048,230.076 675.189,230.569 Q676.33,231.061 677.445,231.061 Q679.38,231.061 681.252,229.994 Q683.124,228.928 684.165,227.147 Q685.207,225.366 685.207,222.998 z" fill="#2D384B"/>
    <path d="M701.547,233.616 L696.935,233.616 L696.935,207.436 L701.547,207.436 L701.547,212.053 Q702.688,210.061 704.039,208.959 Q705.391,207.858 706.916,207.283 Q708.441,206.709 710.028,206.709 Q711.466,206.709 712.507,207.108 L712.507,211.631 Q710.871,210.881 709.036,210.881 Q706.432,210.881 703.99,213.037 Q701.547,215.194 701.547,220.678 z" fill="#2D384B"/>
    <path d="M733.485,229.912 L733.485,233.569 Q730.112,234.342 728.327,234.342 Q725.748,234.342 723.678,233.358 Q721.607,232.373 720.529,230.498 Q719.45,228.623 719.45,224.522 L719.45,211.069 L714.64,211.069 L714.64,207.436 L719.45,207.436 L719.45,201.248 L724.062,201.248 L724.062,207.436 L732.146,207.436 L732.146,211.069 L724.062,211.069 L724.062,223.28 Q724.062,226.748 724.633,228.096 Q725.203,229.444 726.43,230.076 Q727.658,230.709 729.369,230.709 Q730.732,230.709 733.485,229.912 z" fill="#2D384B"/>
    <path d="M737.353,226.701 L741.965,226.701 L741.965,226.795 Q741.965,228.483 743.329,229.596 Q744.693,230.709 747.941,230.709 Q750.792,230.709 752.565,229.397 Q754.338,228.084 754.338,226.303 Q754.338,223.889 750.867,222.881 L748.511,222.201 L746.949,221.733 L743.75,220.795 Q738.27,218.897 738.27,214.491 Q738.27,211.397 740.924,209.053 Q743.577,206.709 748.809,206.709 Q753.966,206.709 756.148,208.713 Q758.331,210.717 758.331,213.155 L758.331,213.248 L753.694,213.248 L753.694,213.155 Q753.694,211.842 752.293,211.092 Q750.892,210.342 748.561,210.342 Q745.784,210.342 744.308,211.432 Q742.833,212.522 742.833,214.116 Q742.833,215.334 743.788,216.096 Q744.742,216.858 746.999,217.467 L749.23,218.053 L750.842,218.498 Q754.214,219.412 755.045,219.787 Q755.876,220.162 756.719,220.748 Q757.884,221.592 758.442,222.787 Q759,223.983 759,225.576 Q759,229.28 756.186,231.811 Q753.371,234.342 747.966,234.342 Q744.544,234.342 742.287,233.381 Q740.031,232.42 738.692,230.721 Q737.353,229.022 737.353,226.795 z" fill="#2D384B"/>
  </g>
</svg>
